<svg width="144" height="144" viewBox="0 0 144 144" fill="none" xmlns="http://www.w3.org/2000/svg">
  <rect width="144" height="144" rx="20" fill="#3B82F6"/>
  <path d="M72 36C54.3269 36 40 50.3269 40 68V76C40 93.6731 54.3269 108 72 108C89.6731 108 104 93.6731 104 76V68C104 50.3269 89.6731 36 72 36Z" fill="white"/>
  <path d="M72 48C60.9543 48 52 56.9543 52 68V76C52 87.0457 60.9543 96 72 96C83.0457 96 92 87.0457 92 76V68C92 56.9543 83.0457 48 72 48Z" fill="#3B82F6"/>
  <circle cx="72" cy="72" r="8" fill="white"/>
</svg>